<svg width="30" height="28" viewBox="0 0 30 28" fill="none" xmlns="http://www.w3.org/2000/svg">
<path fill-rule="evenodd" clip-rule="evenodd" d="M29.7607 22.1058L29.762 22.1096C30.1746 22.6575 30.3722 24.4784 27.5424 24.1547C26.3804 24.0391 25.2383 23.7692 24.1449 23.352C23.2903 23.0181 22.473 22.5926 21.7065 22.0828C20.5707 22.5486 19.3677 22.8215 18.1453 22.8907C17.2729 24.0836 16.1389 25.0521 14.8338 25.719C13.5287 26.3858 12.0887 26.7324 10.6288 26.7312C9.64372 26.7321 8.66469 26.5747 7.72773 26.2649C7.17753 26.5898 6.55231 26.9071 5.86206 27.1734C4.46155 27.7137 3.29988 27.9163 2.46458 27.9762C1.83935 28.0233 1.39794 27.9902 1.18036 27.9647C0.702687 27.9086 0.275032 27.6309 0.0899648 27.1645C0.0104897 26.9627 -0.0169847 26.7435 0.0101561 26.5278C0.037297 26.3122 0.11815 26.1071 0.245021 25.9323C0.560135 25.4927 0.85024 25.0327 1.12534 24.5663C1.66053 23.6565 2.18572 22.6753 2.31827 21.6075C1.73188 20.4668 1.37779 19.217 1.27725 17.9333C1.17671 16.6496 1.33181 15.3585 1.73322 14.1374C2.13464 12.9163 2.77409 11.7905 3.61318 10.8276C4.45227 9.86461 5.47368 9.08441 6.61608 8.53381C7.01605 6.99393 7.72644 5.55583 8.70197 4.31119C9.67751 3.06654 10.8968 2.04264 12.2821 1.30473C13.6675 0.566823 15.1885 0.131095 16.7482 0.0253152C18.3079 -0.0804644 19.8721 0.146025 21.3412 0.690348C22.8103 1.23467 24.152 2.08489 25.2808 3.18682C26.4096 4.28875 27.3007 5.61823 27.8974 7.09052C28.4941 8.56281 28.7833 10.1456 28.7465 11.7381C28.7097 13.3306 28.3477 14.8978 27.6837 16.3398C27.4461 18.5366 28.5303 20.3855 29.7595 22.1058H29.7607ZM8.7531 11.4404C8.75379 10.0963 9.05254 8.76974 9.62705 7.55986C10.2016 6.34998 11.0369 5.28805 12.0708 4.45342C13.1047 3.61879 14.3103 3.03304 15.5975 2.73994C16.8848 2.44685 18.2204 2.45398 19.5045 2.76082C20.7887 3.06765 21.9882 3.66625 23.0134 4.51188C24.0386 5.35752 24.863 6.42832 25.4251 7.64427C25.9871 8.86022 26.2722 10.1899 26.259 11.5339C26.2459 12.8779 25.9348 14.2015 25.3491 15.4058C25.2891 15.5288 25.249 15.6609 25.2303 15.797C24.9565 17.8039 25.4179 19.6337 26.362 21.3909C24.9963 21.0523 23.7091 20.444 22.5731 19.6006C22.3906 19.4657 22.1758 19.3836 21.9512 19.363C21.7267 19.3423 21.5009 19.3839 21.2976 19.4834C19.9631 20.1369 18.4876 20.4348 17.0092 20.3491C15.5309 20.2634 14.0981 19.797 12.8448 18.9935C11.5915 18.1899 10.5588 17.0755 9.84319 15.7546C9.12759 14.4336 8.75253 12.9492 8.7531 11.4404ZM6.2572 11.764C6.32753 14.299 7.22011 16.7389 8.79541 18.7022C10.3707 20.6655 12.54 22.0416 14.9641 22.6154C13.7395 23.6316 12.208 24.1853 10.6288 24.1828C9.71595 24.1828 8.84939 24.0031 8.0566 23.6769C7.87101 23.6004 7.67011 23.5704 7.47079 23.5895C7.27147 23.6086 7.07956 23.6761 6.91119 23.7865C6.36224 24.1471 5.71075 24.5064 4.97549 24.7906C4.5407 24.9595 4.09591 25.1004 3.64375 25.2124C4.06015 24.4389 4.48156 23.5176 4.67413 22.6511C4.77041 22.2217 4.82418 21.805 4.84669 21.4138C4.86194 21.1623 4.80363 20.9117 4.67913 20.6939C4.06904 19.6253 3.74881 18.4107 3.75129 17.1744C3.75129 14.9955 4.72664 13.0497 6.2572 11.764Z" fill="white"/>
</svg>
