<svg width="25" height="25" viewBox="0 0 25 25" fill="none" xmlns="http://www.w3.org/2000/svg">
<path fill-rule="evenodd" clip-rule="evenodd" d="M12.5 25C19.4036 25 25 19.4036 25 12.5C25 5.59644 19.4036 0 12.5 0C5.59644 0 0 5.59644 0 12.5C0 19.4036 5.59644 25 12.5 25Z" fill="#69E3A9"/>
<path fill-rule="evenodd" clip-rule="evenodd" d="M18.8486 8.87516C19.0505 9.0753 19.0505 9.39993 18.8486 9.60007C17.509 10.9285 12.8773 15.5215 11.5379 16.8497C11.441 16.9459 11.3095 17 11.1723 17C11.0352 17 10.9037 16.9459 10.8067 16.8497C9.98077 16.0307 7.97749 14.0441 7.15136 13.2251C6.94955 13.0248 6.94955 12.7001 7.15136 12.5C7.37468 12.2787 7.65921 11.9964 7.88254 11.7749C8.08435 11.5748 8.41173 11.5748 8.61354 11.7751C9.39798 12.553 11.1723 14.3125 11.1723 14.3125C11.1723 14.3125 16.0038 9.52116 17.3865 8.15026C17.4834 8.05413 17.6149 8.00016 17.752 8C17.8892 8 18.0207 8.05413 18.1176 8.15026L18.8486 8.87516Z" fill="white"/>
</svg>
