<svg width="24" height="24" viewBox="0 0 24 24" fill="none" xmlns="http://www.w3.org/2000/svg">
<path fill-rule="evenodd" clip-rule="evenodd" d="M6.66667 8.0001C6.66667 6.58562 7.22857 5.22908 8.22876 4.22889C9.22896 3.2287 10.5855 2.6668 12 2.6668C13.4145 2.6668 14.771 3.2287 15.7712 4.22889C16.7714 5.22908 17.3333 6.58562 17.3333 8.0001C17.3333 9.41458 16.7714 10.7711 15.7712 11.7713C14.771 12.7715 13.4145 13.3334 12 13.3334C10.5855 13.3334 9.22896 12.7715 8.22876 11.7713C7.22857 10.7711 6.66667 9.41458 6.66667 8.0001ZM17.0987 14.1641C18.3673 13.1145 19.2813 11.6991 19.7158 10.111C20.1503 8.52282 20.0841 6.83928 19.5264 5.2901C18.9687 3.74092 17.9465 2.40156 16.5994 1.4548C15.2523 0.508044 13.6459 0 11.9993 0C10.3528 0 8.74638 0.508044 7.39928 1.4548C6.05217 2.40156 5.03001 3.74092 4.47227 5.2901C3.91454 6.83928 3.8484 8.52282 4.28289 10.111C4.71737 11.6991 5.63132 13.1145 6.9 14.1641C2.648 15.6614 0 18.996 0 22.6667C0 23.0203 0.140476 23.3594 0.390524 23.6095C0.640573 23.8595 0.979711 24 1.33333 24C1.68696 24 2.02609 23.8595 2.27614 23.6095C2.52619 23.3594 2.66667 23.0203 2.66667 22.6667C2.66667 19.64 5.80667 16.0001 12 16.0001C18.1933 16.0001 21.3333 19.64 21.3333 22.6667C21.3333 23.0203 21.4738 23.3594 21.7239 23.6095C21.9739 23.8595 22.313 24 22.6667 24C23.0203 24 23.3594 23.8595 23.6095 23.6095C23.8595 23.3594 24 23.0203 24 22.6667C24 18.996 21.3547 15.6614 17.0987 14.1641Z" fill="#3173F3"/>
</svg>
