<svg width="29" height="28" viewBox="0 0 29 28" fill="none" xmlns="http://www.w3.org/2000/svg">
<path d="M4.77778 10.6227V19.423C4.77778 21.7251 4.77778 22.8762 5.23192 23.7555C5.63139 24.529 6.26881 25.1579 7.05282 25.552C7.94412 26 9.11089 26 11.4444 26H17.5556C19.8891 26 21.0559 26 21.9472 25.552C22.7312 25.1579 23.3686 24.529 23.7681 23.7555C24.2222 22.8762 24.2222 21.7251 24.2222 19.423V4.07651M27 13.668L19.4538 5.39736C17.7376 3.51637 16.8795 2.57588 15.8689 2.22867C14.9813 1.92371 14.0153 1.92378 13.1277 2.22887C12.1172 2.57623 11.2592 3.51685 9.54325 5.39808L2 13.668M17.2778 26V17.7787H11.7222V26" stroke="#3173F3" stroke-width="2.5" stroke-linecap="round" stroke-linejoin="round"/>
</svg>
