<svg width="21" height="24" viewBox="0 0 21 24" fill="none" xmlns="http://www.w3.org/2000/svg">
<path d="M12.875 10.1667C12.875 11.8542 10.2167 13.2222 6.9375 13.2222C3.65831 13.2222 1 11.8542 1 10.1667M12.875 10.1667C12.875 8.47913 10.2167 7.11111 6.9375 7.11111C3.65831 7.11111 1 8.47913 1 10.1667M12.875 10.1667V15.0556M1 10.1667V15.0556M20 4.05556C20 2.36802 17.3417 1 14.0625 1C11.7123 1 9.68105 1.70269 8.71875 2.72207M20 4.05556C20 5.18654 18.806 6.17401 17.0312 6.70233M20 4.05556V14.4444C20 15.3492 18.806 16.1392 17.0312 16.5619M20 9.55556C20 10.4804 18.7525 11.2853 16.9124 11.7005M12.875 15.0556C12.875 16.7431 10.2167 18.1111 6.9375 18.1111C3.65831 18.1111 1 16.7431 1 15.0556M12.875 15.0556V19.9444C12.875 21.632 10.2167 23 6.9375 23C3.65831 23 1 21.632 1 19.9444V15.0556" stroke="#3173F3" stroke-width="1.6" stroke-linecap="round" stroke-linejoin="round"/>
</svg>
