<svg width="32" height="29" viewBox="0 0 32 29" fill="none" xmlns="http://www.w3.org/2000/svg">
<path d="M16 24.625H6.33333C4.46649 24.625 3.53307 24.625 2.82003 24.2571C2.19282 23.9336 1.68289 23.4173 1.36331 22.7822C1 22.0603 1 21.1152 1 19.225V6.4C1 4.50982 1 3.56473 1.36331 2.84278C1.68289 2.20774 2.19282 1.69143 2.82003 1.36785C3.53307 1 4.46649 1 6.33333 1H25.6667C27.5335 1 28.4669 1 29.18 1.36785C29.8072 1.69143 30.3171 2.20774 30.6367 2.84278C31 3.56473 31 4.50982 31 6.4V12.8125M1 7.75H31M26 28V17.875M31 22.9389L21 22.9375" stroke="#3173F3" stroke-width="2" stroke-linecap="round" stroke-linejoin="round"/>
</svg>
