<svg width="32" height="32" viewBox="0 0 32 32" fill="none" xmlns="http://www.w3.org/2000/svg">
<path fill-rule="evenodd" clip-rule="evenodd" d="M16.3286 1.00125C27.036 1.01413 27.6749 1.02058 28.0428 1.13011C28.2558 1.19454 28.6302 1.34917 28.8819 1.47803C29.1788 1.63267 29.5015 1.8775 29.8242 2.19965C30.2114 2.57979 30.3728 2.79885 30.5793 3.23054C30.7213 3.53336 30.8762 3.95216 30.9214 4.16478C30.9859 4.4676 31.0053 6.11702 30.9988 11.8642C30.9924 17.2377 30.973 19.2801 30.9149 19.5636C30.8762 19.7762 30.7213 20.195 30.5793 20.4979C30.3728 20.9231 30.205 21.1551 29.8242 21.5352C29.4434 21.9153 29.211 22.0828 28.7851 22.289C28.4817 22.4308 28.0622 22.5854 27.8492 22.6369C27.5588 22.7014 27.6681 22.7207 22.1563 22.7207L21.8465 22.5274C21.6529 22.405 21.4851 22.2375 21.4011 22.0764C21.3108 21.9046 21.2656 21.7006 21.2656 21.4643C21.2656 21.2259 21.3108 21.0326 21.4011 20.8844C21.4721 20.762 21.6529 20.5687 22.0853 20.2724L24.2865 20.2401C27.3845 20.2079 27.4684 20.2015 27.7201 20.0662C27.8621 19.9953 28.0428 19.86 28.1203 19.7762C28.1977 19.6989 28.3204 19.4992 28.3914 19.3381C28.5204 19.0546 28.5269 18.9451 28.5269 8.96483H3.48484V13.9775C3.48484 17.766 3.5042 19.0417 3.56875 19.235C3.60747 19.3703 3.73655 19.5829 3.83982 19.7118C3.94309 19.8407 4.18189 20.0082 4.35615 20.0919C4.67886 20.2401 4.68531 20.2401 7.64776 20.2401C9.40974 20.2401 9.74573 20.2659 9.89418 20.3046C10.0233 20.3432 10.2362 20.4656 10.3653 20.5816C10.488 20.6911 10.6364 20.9038 10.6945 21.0455C10.759 21.2195 10.7784 21.4128 10.7526 21.6254C10.7332 21.8122 10.6493 22.0442 10.5525 22.1924C10.4621 22.3212 10.2685 22.4952 10.1201 22.579C9.84255 22.7207 9.83609 22.7207 7.68003 22.7207C5.31136 22.7207 4.45296 22.7014 4.16253 22.6369C3.94954 22.5854 3.53648 22.4372 3.24604 22.2955C2.83297 22.1022 2.59417 21.9282 2.20047 21.5481C1.79386 21.1422 1.64541 20.936 1.43243 20.4979C1.29044 20.195 1.13554 19.7762 1.0839 19.5636C1.01936 19.2544 1 17.7145 1 11.832C1 5.87862 1.01936 4.4225 1.09036 4.13256C1.13554 3.93927 1.29044 3.53336 1.43243 3.23054C1.64541 2.79241 1.79386 2.58623 2.18756 2.19965C2.46509 1.92905 2.84588 1.62622 3.06532 1.51669C3.27831 1.40072 3.60102 1.25897 3.77528 1.20098C3.95599 1.143 4.30452 1.06568 4.54977 1.03991C4.80149 1.01413 10.1003 0.994806 16.3286 1.00125ZM4.02054 3.84263C3.89145 3.95216 3.71719 4.18411 3.63329 4.35807C3.5042 4.648 3.48484 4.77686 3.48484 5.60157V6.51648H28.5269C28.5269 4.81552 28.5075 4.63512 28.3914 4.39028C28.3204 4.22921 28.1977 4.02947 28.1203 3.94571C28.0428 3.86195 27.8298 3.72665 27.6556 3.64289L27.3329 3.48826C7.50577 3.4947 4.62722 3.51403 4.47233 3.57202C4.35615 3.61712 4.14962 3.73954 4.02054 3.84263ZM16.0769 17.547C16.4318 17.5663 16.5416 17.5985 16.7481 17.7596C16.8836 17.8627 17.0514 18.0688 17.116 18.2106C17.2192 18.449 17.2322 18.7776 17.2322 26.7798L18.3423 25.6716C19.0522 24.9629 19.5492 24.5248 19.6976 24.4603C19.8332 24.4088 20.0268 24.3637 20.1365 24.3637C20.2398 24.3637 20.4399 24.4088 20.5689 24.4668C20.7045 24.5183 20.8852 24.6278 20.9626 24.7052C21.0465 24.7825 21.1756 24.9564 21.2402 25.0917C21.3047 25.2206 21.3628 25.4526 21.3628 25.6072C21.3628 25.7554 21.3047 25.9938 21.2402 26.1355C21.1627 26.303 20.356 27.1535 18.8715 28.629C16.9804 30.5039 16.5803 30.8711 16.3608 30.9291C16.2189 30.9678 16.0575 31 16.0059 31C15.9542 31 15.7929 30.9678 15.6509 30.9291C15.4314 30.8711 15.0313 30.5039 13.1402 28.629C11.6558 27.1535 10.849 26.303 10.7716 26.1355C10.707 25.9938 10.6489 25.7554 10.6489 25.6072C10.6489 25.4526 10.707 25.2206 10.7716 25.0917C10.8361 24.9564 10.9652 24.7825 11.0491 24.7052C11.1265 24.6278 11.3073 24.5183 11.4363 24.4668C11.5719 24.4088 11.7655 24.3637 11.8752 24.3637C11.9785 24.3637 12.1786 24.4088 12.3076 24.4603C12.4625 24.5248 12.9595 24.9629 14.7796 26.7798V22.6241C14.7796 18.7325 14.7925 18.449 14.9022 18.2106C14.9668 18.0688 15.0765 17.9013 15.141 17.8433C15.2056 17.7853 15.3475 17.6887 15.4573 17.6307C15.5928 17.5598 15.7735 17.5341 16.0769 17.547Z" fill="white" stroke="#608EE9" stroke-width="0.5"/>
</svg>
