<svg width="33" height="29" viewBox="0 0 33 29" fill="none" xmlns="http://www.w3.org/2000/svg">
<path d="M17.3611 24.625H26.4889C28.418 24.625 29.3825 24.625 30.1193 24.2571C30.7674 23.9336 31.2943 23.4173 31.6246 22.7822C32 22.0603 32 21.1152 32 19.225V6.4C32 4.50982 32 3.56473 31.6246 2.84278C31.2943 2.20774 30.7674 1.69143 30.1193 1.36785C29.3825 1 28.418 1 26.4889 1H6.51111C4.58204 1 3.61751 1 2.8807 1.36785C2.23258 1.69143 1.70565 2.20774 1.37542 2.84278C1 3.56473 1 4.50982 1 6.4V17.875M1 7.75H30.2778M11.3333 24.6264L1 24.625M11.3333 24.6264L7.88889 21.25M11.3333 24.6264L7.88889 28" stroke="#3173F3" stroke-width="2" stroke-linecap="round" stroke-linejoin="round"/>
</svg>
